<svg width="556" height="652" fill="none" xmlns="http://www.w3.org/2000/svg"><path fill-rule="evenodd" clip-rule="evenodd" d="M69.799 297.324c-31.243 49.057-81.19 146.368-20.135 171.653 61.064 25.286 114.498 14.069 124.227 57.973 9.737 43.903 18.06 136.979 103.637 123.014 85.578-13.967 244.896-106.337 272.839-196.048 27.943-89.71-57.472-132.7-51.206-147.216 6.274-14.515 57.231-105.787 8.177-144.604-49.063-38.817-180.532-75.164-288.456-6.649-63.163 40.099-117.849 92.84-149.083 141.877Z" fill="url(#a)"/><mask id="b" style="mask-type:alpha" maskUnits="userSpaceOnUse" x="20" y="116" width="536" height="536"><path fill-rule="evenodd" clip-rule="evenodd" d="M69.799 297.324c-31.243 49.057-81.19 146.368-20.135 171.653 61.064 25.286 114.498 14.069 124.227 57.973 9.737 43.903 18.06 136.979 103.637 123.014 85.578-13.967 244.896-106.337 272.839-196.048 27.943-89.71-57.472-132.7-51.206-147.216 6.274-14.515 57.231-105.787 8.177-144.604-49.063-38.817-180.532-75.164-288.456-6.649-63.163 40.099-117.849 92.84-149.083 141.877Z" fill="#fff"/></mask><g mask="url(#b)"><path fill-rule="evenodd" clip-rule="evenodd" d="m296.291 522.742-24.352 155.692 182.127-47.223-37.8-113.522-119.975 5.053Z" fill="url(#c)"/><mask id="d" style="mask-type:alpha" maskUnits="userSpaceOnUse" x="271" y="517" width="184" height="162"><path fill-rule="evenodd" clip-rule="evenodd" d="m296.291 522.742-24.352 155.692 182.127-47.223-37.8-113.522-119.975 5.053Z" fill="#fff"/></mask><g mask="url(#d)" fill-rule="evenodd" clip-rule="evenodd" fill="#CCDBFF"><path d="M290.659 689.006s38.177-53.217 74.572-84.685c36.394-31.468 79.852-58.364 79.852-58.364l39.42 94.324-193.844 48.725ZM290.659 540.537l139.9 5.419-7.379-21.11-132.521 15.691Z"/></g></g><path fill-rule="evenodd" clip-rule="evenodd" d="M.344 115.954c0-6.741 5.464-12.206 12.206-12.206h258.729c6.741 0 12.206 5.465 12.206 12.206v211.128c0 6.741-5.465 12.206-12.206 12.206H12.549c-6.74 0-12.205-5.465-12.205-12.206V115.954Z" fill="url(#e)"/><mask id="f" style="mask-type:alpha" maskUnits="userSpaceOnUse" x="0" y="103" width="284" height="247"><path fill-rule="evenodd" clip-rule="evenodd" d="M.344 115.954c0-6.741 5.464-12.206 12.206-12.206h258.729c6.741 0 12.206 5.465 12.206 12.206v221.11c0 6.741-5.465 12.205-12.206 12.205H12.549c-6.74 0-12.205-5.464-12.205-12.205v-221.11Z" fill="#fff"/></mask><g mask="url(#f)"><circle cx="148.979" cy="75.397" r="69.297" fill="#000" fill-opacity=".093"/><path opacity=".871" fill-rule="evenodd" clip-rule="evenodd" d="M41.538 163.585a6.103 6.103 0 0 1 6.103-6.103h191.923a6.104 6.104 0 0 1 6.103 6.103v18.364a6.104 6.104 0 0 1-6.103 6.103H47.641a6.103 6.103 0 0 1-6.103-6.103v-18.364ZM41.538 224.614a6.103 6.103 0 0 1 6.103-6.103h191.923a6.103 6.103 0 0 1 6.103 6.103v18.363a6.103 6.103 0 0 1-6.103 6.103H47.641a6.103 6.103 0 0 1-6.103-6.103v-18.363Z" fill="#fff"/><rect x="89.19" y="273.919" width="109.852" height="26.451" rx="6.103" fill="url(#g)"/></g><circle cx="142.877" cy="69.297" r="69.297" fill="url(#h)"/><path opacity=".871" fill-rule="evenodd" clip-rule="evenodd" d="M114.199 102.26c0-16.327 13.236-29.563 29.564-29.563 16.327 0 29.563 13.236 29.563 29.563v4.536h-59.127v-4.536Z" fill="#fff"/><circle opacity=".871" cx="143.762" cy="51.832" r="17.462" fill="#fff"/><path d="m164.523 395.714 80.7 30.292 35.769-61.639 14.194 95.308s-17.357 26.256-31.08 23.487c-13.723-2.769-107.64-63.882-107.64-63.882l8.057-23.566Z" fill="#FFC5CD"/><mask id="i" style="mask-type:alpha" maskUnits="userSpaceOnUse" x="156" y="364" width="140" height="120"><path d="m164.523 395.714 80.7 30.292 35.769-61.639 14.194 95.308s-17.357 26.256-31.08 23.487c-13.723-2.769-107.64-63.882-107.64-63.882l8.057-23.566Z" fill="#fff"/></mask><g mask="url(#i)" fill-rule="evenodd" clip-rule="evenodd" fill="#F59498"><path d="m245.643 379.939 37.37 108.792 13.286-8.405-10.997-125.858-39.659 25.471ZM224.49 412.821l.387 2.686c.973 6.76-3.79 13.002-10.566 13.85l-47.988 6.003-5.114-25.71 63.281 3.171Z"/></g><path d="M115.829 316.288a6.104 6.104 0 0 0-2.493 1.461L111.013 320a6.103 6.103 0 0 0-.04 8.729l96.922 95.581a6.101 6.101 0 0 0 7.688.721l3.038-2.041a6.104 6.104 0 0 0 2.327-7.164L179.69 303.123a6.102 6.102 0 0 0-7.484-3.748l-56.377 16.913Z" fill="#272B54"/><path fill-rule="evenodd" clip-rule="evenodd" d="M112.847 322.495a6.103 6.103 0 0 0-3.996 8.011l36.277 96.175a6.102 6.102 0 0 0 5.965 3.944l56.371-2.359c4.153-.174 6.92-4.356 5.457-8.246l-40.98-108.94a6.102 6.102 0 0 0-7.427-3.708l-51.667 15.123Z" fill="#2D5DA8"/><ellipse cx="155.578" cy="369.092" rx="6.103" ry="9.154" transform="rotate(-24 155.578 369.092)" fill="#fff"/><path d="M139.99 353.57c.823 1.738-3.6 5.967-7.346 10.265-4.328 4.974-9.565 9.159-9.565 9.159s5.468-4.438 11.254-8.505c5.794-4.066 11.906-7.76 13.208-6.274 2.598 2.972.978 4.168.189 5.429-.369.587-4.911 4.691-9.651 8.908-5.443 4.836-11.152 9.821-11.152 9.821s4.534-2.592 9.077-5.069c4.072-2.22 8.143-4.346 8.949-4.432 1.706-.18 3.96 3.451 2.768 5.085-.54.734-4.405 3.565-8.502 6.46-5.023 3.548-10.389 7.191-10.389 7.191s2.983-1.327 6.369-2.779c3.84-1.645 8.22-3.235 9.274-3.656 4.09-1.633 2.28 4.136.48 5.193-.849.5-4.594 2.982-8.914 4.971-4.826 2.219-9.643 4.403-9.643 4.403s-3.815-.086-4.466-2.028c-.643-1.941 1.114-2.91.12-3.738-.994-.828-3.06-1.683-3.326-3.608-.274-1.923.849-2.67.334-4.207-.514-1.539-3.582-2.081-3.78-4.403-.188-2.323 1.749-3.552 1.483-4.614-.265-1.062-2.708-3.124-2.383-6.047.352-3.216 23.821-21.273 25.612-17.525ZM344.849 299.698s-1.252-27.571-3.738-28.423c-2.494-.851-15.017 2.074-16.654-3.228-1.637-5.303-2.014-20.671-2.014-20.671s-4.989-2.903-4.929-4.57c.06-1.667 6.6-6.863 6.986-9.513.386-2.651 2.606-32.499 2.606-32.499l62.031 15.789s-6.523 30.587-6.454 37.105c.069 6.518 12.857 46.7 12.857 46.7l-47.34 27.388-3.351-28.078Z" fill="#FFC5CD"/><mask id="j" style="mask-type:alpha" maskUnits="userSpaceOnUse" x="317" y="200" width="79" height="128"><path d="M344.849 299.698s-1.252-27.571-3.738-28.423c-2.494-.851-15.017 2.074-16.654-3.228-1.637-5.303-2.014-20.671-2.014-20.671s-4.989-2.903-4.929-4.57c.06-1.667 6.6-6.863 6.986-9.513.386-2.651 2.606-32.499 2.606-32.499l62.031 15.789s-6.523 30.587-6.454 37.105c.069 6.518 12.857 46.7 12.857 46.7l-47.34 27.388-3.351-28.078Z" fill="#fff"/></mask><g mask="url(#j)"><path d="M322.94 257.295c4.209.043 7.543-.693 9.738-2.44" stroke="#F59498" stroke-width="3.051" stroke-linecap="round"/><ellipse cx="334.454" cy="231.68" rx="1.879" ry="3.293" fill="#272B54"/><path d="M331.334 221.468c4.671-1.764 8.28-.979 11.074 1.773" stroke="#272B54" stroke-width="3.051" stroke-linecap="round"/><path fill-rule="evenodd" clip-rule="evenodd" d="m371.823 256.077 21.855 40.278-6.094-51.894-15.761 11.616Z" fill="#F59498"/></g><path fill-rule="evenodd" clip-rule="evenodd" d="m257.418 382.987 23.64 36.66 9.48 120.896 135.489-5.879s-9.351-48.007 1.02-76.28c10.363-28.271 47.118-110.379 33.712-132.598-13.406-22.22-68.195-34.194-68.195-34.194l-42.6 26.278-7.594-19.913s-32.829 8.632-43.02 14.552c-10.192 5.921-41.932 70.478-41.932 70.478Z" fill="url(#k)"/><mask id="l" style="mask-type:alpha" maskUnits="userSpaceOnUse" x="257" y="291" width="207" height="250"><path fill-rule="evenodd" clip-rule="evenodd" d="m257.418 382.987 23.64 36.66 9.48 120.896 135.489-5.879s-9.351-48.007 1.02-76.28c10.363-28.271 47.118-110.379 33.712-132.598-13.406-22.22-68.195-34.194-68.195-34.194l-42.6 26.278-7.594-19.913s-32.829 8.632-43.02 14.552c-10.192 5.921-41.932 70.478-41.932 70.478Z" fill="#fff"/></mask><g mask="url(#l)"><path fill-rule="evenodd" clip-rule="evenodd" d="M375.216 361.269s-10.251 18.259-8.82 20.942c1.423 2.683 1.157 5.315 1.157 5.315l49.072 26.132s6.652-.134 13.397-7.302c6.746-7.167 18.18-21.433 20.392-25.155 2.211-3.722 14.82-19.24 14.82-19.24s-17.974 66.451-27.223 79.433c-1.767 2.482-5.949 96.096-14.993 104.567-3.688 3.455-14.104-76.276-14.104-76.276s-47.005 35.094-62.892 34.808c-43.972-.792-66.84-71.678-66.84-71.678l96.034-71.546Z" fill="#000" fill-opacity=".093"/></g><path fill-rule="evenodd" clip-rule="evenodd" d="M349.965 317.871s3.626 19.194 10.946 17.801c9.96-1.897 35.16-43.705 32.58-44.32-2.58-.615-43.526 26.519-43.526 26.519Z" fill="#fff"/><path d="M189.096 319.159c3.437-.434 10.526.706 14.22.56 3.686-.147 16.972 6.002 16.972 6.002l-4.663 7.298s-10.235-7.372-13.389-7.41c-3.154-.037-9.497-1.317-12.446-2.391-2.734-.995-4.131-3.625-.694-4.059Z" fill="#FABAC3"/><path d="M213.361 322.739s-8.914 13.144-9.651 15.679c-.746 2.534-1.123 6.298 1.226 8.373 2.357 2.074 5.931 5.274 8.168 5.52 2.237.248 8.023 1.053 8.023 1.053l7.303 3.861s74.426 110.139 84.72 124.418c10.449 14.494 38.315 16.784 52.295.383 13.98-16.402 45.463-67.776 45.463-67.776l-42.558-24.009-28.86 47.523s-94.217-92.179-98.066-95.782c-3.857-3.604-21.146-19.164-23.28-20.45-2.126-1.285-4.783 1.207-4.783 1.207Z" fill="#FFC5CD"/><path fill-rule="evenodd" clip-rule="evenodd" d="m367.554 387.527-5.778 10.275 46.355 27.529 8.494-11.671-49.071-26.133Z" fill="#fff"/><path fill-rule="evenodd" clip-rule="evenodd" d="m229.943 344.798-6.056-5.956-3.686 3.194 2.708 2.117 3.232-1.161s1.594 1.584.48 2.958c-1.114 1.373-7.586 7.283-7.586 7.283s5.297.761 7.294-.632c1.998-1.394 2.923-5.118 2.923-5.118l.691-2.685Z" fill="#F59498"/><path fill-rule="evenodd" clip-rule="evenodd" d="m343.235 296.449 6.728 21.421s-15.694 9.275-18.351 5.827c-3.789-4.916 9.926-28.995 11.623-27.248Z" fill="#fff"/><path fill-rule="evenodd" clip-rule="evenodd" d="M308.668 184.779c-.137 14.217 10.252 22.979 17.812 26.421 7.56 3.442 31.131 1.187 31.131 1.187s1.8 17.124 4.14 18.476c2.332 1.352 6.283-9.906 11.058-6.544 4.765 3.361 4.551 10.772 1.2 14.097-3.352 3.323-7.869 7.848-6.858 12.502 1.012 4.652 4.963 9.345 4.963 9.345s8.255-6.087 10.775-7.374c2.503-1.287 29.443-15.845 28.388-24.779-1.054-8.933-13.26-10.315-9.763-15.916 3.498-5.602-.642-16.53-7.851-20.487-12.086-6.629-30.78 3.994-35.734-.368-4.955-4.361 1.697-14.943-5.092-17.361-6.78-2.419-18.377 5.253-21.934 4.875-3.557-.378-6.377-11.368-11.923-11.06-5.486.305-10.166 2.769-10.312 16.986Z" fill="#2D5DA8"/><mask id="m" style="mask-type:alpha" maskUnits="userSpaceOnUse" x="308" y="167" width="104" height="94"><path fill-rule="evenodd" clip-rule="evenodd" d="M308.668 184.779c-.137 14.217 10.252 22.979 17.812 26.421 7.56 3.442 31.131 1.187 31.131 1.187s1.8 17.124 4.14 18.476c2.332 1.352 6.283-9.906 11.058-6.544 4.765 3.361 4.551 10.772 1.2 14.097-3.352 3.323-7.869 7.848-6.858 12.502 1.012 4.652 4.963 9.345 4.963 9.345s8.255-6.087 10.775-7.374c2.503-1.287 29.443-15.845 28.388-24.779-1.054-8.933-13.26-10.315-9.763-15.916 3.498-5.602-.642-16.53-7.851-20.487-12.086-6.629-30.78 3.994-35.734-.368-4.955-4.361 1.697-14.943-5.092-17.361-6.78-2.419-18.377 5.253-21.934 4.875-3.557-.378-6.377-11.368-11.923-11.06-5.486.305-10.166 2.769-10.312 16.986Z" fill="#fff"/></mask><g mask="url(#m)"><path d="M374.981 182.713s18.696 9.662 18.696 20.487c0 10.824 9.693 18.603 9.693 25.189 0 6.586-17.038 27.69-17.038 27.69l34.909-27.69-25.7-55.625-20.56 9.949Z" fill="#272B54"/></g><path transform="rotate(20.766 122.508 462.692)" fill="url(#n)" d="M122.508 462.692h44.602v45.135h-44.602z"/><path fill="url(#o)" d="M495.371 445.295h30.088v34.21h-30.088z"/><path fill-rule="evenodd" clip-rule="evenodd" d="m458.002 104.127 2.934 59.644-50.755-23.879 47.821-35.765Z" fill="url(#p)"/><path d="M114.535 329.728a.611.611 0 0 1 .437-.77l11.194-2.78a.61.61 0 0 1 .729.41l4.545 14.492a.61.61 0 0 1-.491.786l-11.644 1.772a.61.61 0 0 1-.676-.426l-4.094-13.484Z" fill="#272B54"/><defs><linearGradient id="a" x1="-136.764" y1="332.204" x2="174.418" y2="725.028" gradientUnits="userSpaceOnUse"><stop stop-color="#fff"/><stop offset="1" stop-color="#B4CBFF"/></linearGradient><linearGradient id="c" x1="389.433" y1="610.34" x2="448.451" y2="621.872" gradientUnits="userSpaceOnUse"><stop stop-color="#F3F6FF"/><stop offset="1" stop-color="#B4CBFF"/></linearGradient><linearGradient id="e" x1="-196.542" y1="340.161" x2="163.981" y2="405.294" gradientUnits="userSpaceOnUse"><stop stop-color="#F3F6FF"/><stop offset="1" stop-color="#B4CBFF"/></linearGradient><linearGradient id="g" x1="89.19" y1="273.919" x2="89.19" y2="300.37" gradientUnits="userSpaceOnUse"><stop stop-color="#FD778F"/><stop offset="1" stop-color="#F09D88"/></linearGradient><linearGradient id="h" x1="61.691" y1="103.66" x2="112.666" y2="164.081" gradientUnits="userSpaceOnUse"><stop stop-color="#FFC238"/><stop offset="1" stop-color="#FFAC75"/></linearGradient><linearGradient id="k" x1="189.117" y1="390.321" x2="381.42" y2="497.439" gradientUnits="userSpaceOnUse"><stop stop-color="#BCF4FF"/><stop offset="1" stop-color="#26BFFF"/></linearGradient><linearGradient id="n" x1="118.682" y1="496.45" x2="135.315" y2="515.932" gradientUnits="userSpaceOnUse"><stop stop-color="#FFC238"/><stop offset="1" stop-color="#FFAC75"/></linearGradient><linearGradient id="o" x1="485.917" y1="456.511" x2="519.581" y2="517.692" gradientUnits="userSpaceOnUse"><stop stop-color="#DA348C"/><stop offset="1" stop-color="#6E23B4"/></linearGradient><linearGradient id="p" x1="432.624" y1="92.188" x2="410.181" y2="139.892" gradientUnits="userSpaceOnUse"><stop stop-color="#FD778F"/><stop offset="1" stop-color="#F09D88"/></linearGradient></defs></svg>