<svg width="460" height="608" fill="none" xmlns="http://www.w3.org/2000/svg"><path fill-rule="evenodd" clip-rule="evenodd" d="M365.523 314.505C419.645 302.038 460 253.556 460 195.648c0-67.361-54.606-121.967-121.967-121.967-37.793 0-71.571 17.189-93.943 44.176a165.605 165.605 0 0 0-39.828-4.832c-91.263 0-165.246 73.983-165.246 165.246s73.983 165.246 165.246 165.246c78.815 0 144.743-55.178 161.261-129.012Z" fill="url(#a)"/><path fill-rule="evenodd" clip-rule="evenodd" d="M118.601 94.313a7.869 7.869 0 0 1 7.868-7.87h194.129a7.869 7.869 0 0 1 7.869 7.87V360.07a7.869 7.869 0 0 1-7.869 7.869H126.469a7.869 7.869 0 0 1-7.868-7.869V94.312Z" fill="url(#b)"/><mask id="c" style="mask-type:alpha" maskUnits="userSpaceOnUse" x="118" y="86" width="211" height="282"><path fill-rule="evenodd" clip-rule="evenodd" d="M118.601 94.313a7.869 7.869 0 0 1 7.868-7.87h194.129a7.869 7.869 0 0 1 7.869 7.87V360.07a7.869 7.869 0 0 1-7.869 7.869H126.469a7.869 7.869 0 0 1-7.868-7.869V94.312Z" fill="#fff"/></mask><g mask="url(#c)"><path opacity=".144" fill-rule="evenodd" clip-rule="evenodd" d="M138.272 74.641a7.869 7.869 0 0 1 7.869-7.869H340.27a7.869 7.869 0 0 1 7.869 7.87V340.4a7.869 7.869 0 0 1-7.869 7.869H146.141a7.869 7.869 0 0 1-7.869-7.869V74.641Z" fill="#7DA8E2"/></g><path d="M126.107 70.775c-2.506-1.221-5.299-1.929-8.106-1.87-29.113.606-3.732 33.675-10.841 45.681-7.22 12.193-28.85-9.368-34.375 13.029" stroke="#FA6C7C" stroke-width="10.928" stroke-linecap="round"/><path fill-rule="evenodd" clip-rule="evenodd" d="M151.292 47.026a7.869 7.869 0 0 1 7.869-7.869h188.412a7.87 7.87 0 0 1 7.869 7.87v281.028a7.869 7.869 0 0 1-7.869 7.869H159.161a7.869 7.869 0 0 1-7.869-7.869V47.026Z" fill="url(#d)"/><mask id="e" style="mask-type:alpha" maskUnits="userSpaceOnUse" x="151" y="39" width="205" height="297"><path fill-rule="evenodd" clip-rule="evenodd" d="M151.292 47.026a7.869 7.869 0 0 1 7.869-7.869h188.412a7.87 7.87 0 0 1 7.869 7.87v281.028a7.869 7.869 0 0 1-7.869 7.869H159.161a7.869 7.869 0 0 1-7.869-7.869V47.026Z" fill="#fff"/></mask><g mask="url(#e)"><circle cx="254.708" cy="92.796" r="26.805" fill="url(#f)"/><path opacity=".871" fill-rule="evenodd" clip-rule="evenodd" d="M243.615 105.548c0-6.316 5.12-11.436 11.436-11.436 6.315 0 11.435 5.12 11.435 11.436v1.754h-22.871v-1.754Z" fill="#fff"/><circle opacity=".871" cx="255.052" cy="86.04" r="6.755" fill="#fff"/><path opacity=".871" fill-rule="evenodd" clip-rule="evenodd" d="M183.552 150.916a7.869 7.869 0 0 1 7.869-7.869h123.532a7.869 7.869 0 0 1 7.869 7.869v9.269a7.869 7.869 0 0 1-7.869 7.869H191.421a7.869 7.869 0 0 1-7.869-7.869v-9.269Z" fill="#fff"/><rect opacity=".871" x="183.552" y="190.26" width="139.27" height="25.007" rx="7.869" fill="#fff"/><path fill-rule="evenodd" clip-rule="evenodd" d="M226.644 255.835a7.868 7.868 0 0 1 7.868-7.868h44.732a7.869 7.869 0 0 1 7.869 7.868v9.722a7.869 7.869 0 0 1-7.869 7.868h-44.732a7.868 7.868 0 0 1-7.868-7.868v-9.722Z" fill="url(#g)"/><path fill-rule="evenodd" clip-rule="evenodd" d="m320.81 210.609 57.621 6.524-41.894 115.272-70.944-48.232h45.113l15.525-46.092-5.421-10.887v-16.585ZM305.604 55.791l57.27 19.64V32.407l-57.25 3.934-.02 19.45Z" fill="#000" fill-opacity=".093"/></g><path d="M316.88 208.474s-5.382-.502-6.001.545c-.608 1.047.574 3.983.574 5.579.012 1.595 4.233 2.961 5.482 3.42 1.271.464 1.459-1.226.354-1.87-1.094-.645-3.139-2.418-3.139-2.418l.033-1.981 3.747.741-1.05-4.016Z" fill="#F0A9B3"/><path d="M305.895 218.767c1.956-1.251 4.454 2.212 6.73 2.53 2.277.32 3.216-1.317 3.835-2.055.63-.738 1.061-5.686.774-6.906-.298-1.22-3.625-7.05-3.625-7.05s-7.283-6.189-6.565-7.46c.708-1.269 7.736 4.383 8.632 5.14.895.757 4.63 5.139 4.63 5.139s2.553.724 4.211 1.277c1.647.554 4.377 7.935 5.99 10.076 1.625 2.141 10.698 11.627 10.698 11.627l-8.211 5.534s-6.897-7.261-9.306-7.767c-2.42-.507-7.515-.727-9.416-1.734-1.901-1.007-10.333-7.098-8.377-8.351Z" fill="#FFC5CD"/><path fill-rule="evenodd" clip-rule="evenodd" d="m336.285 191.39-3.124 5.888a.394.394 0 0 0 .347.578h2.777v-6.466Z" fill="#F59498"/><path d="M336.189 179.133s-1.528 26.704 3.256 29.907c5.182 3.468 13.546.104 13.546.104l2.638-17.571-19.44-12.44Z" fill="#FFC5CD"/><mask id="h" style="mask-type:alpha" maskUnits="userSpaceOnUse" x="335" y="179" width="21" height="32"><path d="M336.189 179.133s-1.528 26.704 3.256 29.907c5.182 3.468 13.546.104 13.546.104l2.638-17.571-19.44-12.44Z" fill="#fff"/></mask><path fill-rule="evenodd" clip-rule="evenodd" d="M382.793 577.682s1.083 7.88.961 15.141c-.11 6.399-1.503 12.245-.574 12.676 1.956.939 22.744 2.431 24.104 1.437 1.359-.984 1.68-3.647.154-4.742-.696-.508-3.823-5.625-6.597-9.106-4.333-5.438-4.012-15.152-4.012-15.152l-14.036-.254ZM320.396 576.664s1.735 22.733-1.89 26.8c-1.856 2.1-44.821 1.679-47.043.088-2.221-1.591-.099-5.46 5.747-6.454 5.858-.984 16.585-6.155 20.442-8.764 3.868-2.619 10.488-12.919 10.488-12.919l12.256 1.249Z" fill="#2D5DA8"/><path fill-rule="evenodd" clip-rule="evenodd" d="M388.142 323.999s9.725 19.849 12.554 35.255c2.83 15.407 1.061 102.484-.088 115.801-1.149 13.328.763 15.981 1.912 26.414 1.149 10.433.133 84.347.133 84.347l-22.878-.741s-6.321-88.657-7.482-97.333c-1.16-8.675-7.889-102.162-7.889-102.162l-25.277 97.852s-1.426 24.789-3.68 40.649c-2.266 15.859-10.334 59.292-10.334 59.292l-25.065-.95s10.201-87.674 10.842-99.842c.641-12.179 21.429-154.26 21.429-154.26l55.823-4.322Z" fill="url(#i)"/><mask id="j" style="mask-type:alpha" maskUnits="userSpaceOnUse" x="300" y="323" width="104" height="263"><path fill-rule="evenodd" clip-rule="evenodd" d="M388.142 323.999s9.725 19.849 12.554 35.255c2.83 15.407 1.061 102.484-.088 115.801-1.149 13.328.763 15.981 1.912 26.414 1.149 10.433.133 84.347.133 84.347l-22.878-.741s-6.321-88.657-7.482-97.333c-1.16-8.675-7.889-102.162-7.889-102.162l-25.277 97.852s-1.426 24.789-3.68 40.649c-2.266 15.859-10.334 59.292-10.334 59.292l-25.065-.95s10.201-87.674 10.842-99.842c.641-12.179 21.429-154.26 21.429-154.26l55.823-4.322Z" fill="#fff"/></mask><g mask="url(#j)"><path fill-rule="evenodd" clip-rule="evenodd" d="M331.233 334.021s12.995 1.889 20.323 5.904c15.217 8.34 39.01 1.334 39.01 1.334s6.527 24.095 5.053 80.658c-.473 18.144-.434 40.253.719 67.204 1.316 30.741 6.728 109.988 6.728 109.988l8.82-114.585-6.498-165.105-74.155 14.602Z" fill="#000" fill-opacity=".093"/></g><path d="M279.105 284.788s-5.161-5.647-6.532-7.25c-1.359-1.613-7.36-5.758-9.117-6.819-.829-.508-2.841-2.044-4.885-3.392-2.321-1.515-4.653-2.774-5.327-1.946-.619.774.961 2.498 2.906 4.178 2.421 2.089 5.394 4.1 5.394 4.1s-1.26 1.625-1.813 2.222c-.553.608-.42 2.155-.42 2.155s-1.293.431-1.757 1.215c-.475.774-.232 1.935-.232 1.935s-.906 1.845-.995 2.862c-.099 1.017 6.499 4.664 7.946 5.227 1.448.564 9.693 2.896 9.693 2.896l5.139-7.383Z" fill="#FFC5CD"/><path fill-rule="evenodd" clip-rule="evenodd" d="M394.31 238.081s13.814 42.655 14.599 46.811c1.26 6.642-5.371 14.466-13.107 12.278-7.737-2.199-14.114-5.006-14.114-5.006l12.622-54.083Z" fill="url(#k)"/><mask id="l" style="mask-type:alpha" maskUnits="userSpaceOnUse" x="381" y="238" width="29" height="60"><path fill-rule="evenodd" clip-rule="evenodd" d="M394.31 238.081s13.814 42.655 14.599 46.811c1.26 6.642-5.371 14.466-13.107 12.278-7.737-2.199-14.114-5.006-14.114-5.006l12.622-54.083Z" fill="#fff"/></mask><g mask="url(#l)"><path fill-rule="evenodd" clip-rule="evenodd" d="M393.788 260.843s5.813 26.845 2.022 29.099c-3.79 2.266-12.514 5.643-12.514 5.643s-5.759-6.987-4.704-10.48c2.442-8.087 15.196-24.262 15.196-24.262Z" fill="#000" fill-opacity=".093"/></g><path fill-rule="evenodd" clip-rule="evenodd" d="M361.996 221.929c12.135-.611 26.922 7.697 30.956 13.345 4.034 5.649 4.431 20.311 1.392 28.862-3.039 8.554-8.764 24.789-7.327 32.448 1.448 7.659 9.051 31.453 9.051 31.453s-6.122 10.411-21.12 10.919c-15.008.509-21.595-7.183-28.447-4.885-6.863 2.288-14.135 6.609-17.473 2.553-3.326-4.044-.254-29.364-.254-29.364l-.542-26.701s-9.747 22.17-14.72 23.982c-4.963 1.813-39.754-6.896-41.157-9.151-1.404-2.265 1.293-12.157 5.879-13.383 4.598-1.227 27.21-1.503 27.21-1.503s14.577-39.084 20.07-46.216c5.492-7.13 24.347-11.748 36.482-12.359Z" fill="url(#m)"/><mask id="n" style="mask-type:alpha" maskUnits="userSpaceOnUse" x="271" y="221" width="126" height="118"><path fill-rule="evenodd" clip-rule="evenodd" d="M361.996 221.929c12.135-.611 26.922 7.697 30.956 13.345 4.034 5.649 4.431 20.311 1.392 28.862-3.039 8.554-8.764 24.789-7.327 32.448 1.448 7.659 9.051 31.453 9.051 31.453s-6.122 10.411-21.12 10.919c-15.008.509-21.595-7.183-28.447-4.885-6.863 2.288-14.135 6.609-17.473 2.553-3.326-4.044-.254-29.364-.254-29.364l-.542-26.701s-9.747 22.17-14.72 23.982c-4.963 1.813-39.754-6.896-41.157-9.151-1.404-2.265 1.293-12.157 5.879-13.383 4.598-1.227 27.21-1.503 27.21-1.503s14.577-39.084 20.07-46.216c5.492-7.13 24.347-11.748 36.482-12.359Z" fill="#fff"/></mask><g mask="url(#n)" fill-rule="evenodd" clip-rule="evenodd" fill="#000" fill-opacity=".093"><path d="M328.232 280.559s10.985-18.689 13.505-17.329c2.531 1.348-14.842 50.318-14.842 50.318l1.337-32.989ZM353.433 265.122s13.271 5.517 23.8 2.691c10.53-2.825 14.448-7.958 14.448-15.66 0-7.703-1.521-27.893-1.521-27.893l-24.408-4.068-12.319 44.93Z"/></g><circle cx="250.416" cy="439.394" r="15.177" fill="url(#o)"/><path transform="rotate(-31.47 393.421 102.058)" fill="url(#p)" d="M393.421 102.058h28.86v28.86h-28.86z"/><path fill-rule="evenodd" clip-rule="evenodd" d="m19.271 266.794 31.95 26.997-38.543 14.308 6.593-41.305Z" fill="url(#q)"/><path fill-rule="evenodd" clip-rule="evenodd" d="M307.408 57.589c14.753 0 26.713-11.96 26.713-26.713 0-14.754-11.96-26.714-26.713-26.714-14.754 0-26.714 11.96-26.714 26.714 0 14.753 11.96 26.713 26.714 26.713Zm-7.778-28.067a5.992 5.992 0 1 0 0-11.985 5.992 5.992 0 0 0 0 11.985Z" fill="#2D5DA8"/><path fill-rule="evenodd" clip-rule="evenodd" d="m333.05 36.341 39.333 23.831 3.524 18.514c.321 1.686-1.521 2.946-2.976 2.035l-7.981-4.994a1.97 1.97 0 0 1-.862-1.182l-1.39-5.455c-.408-1.6-2.486-2.016-3.478-.697l-.971 1.29a1.968 1.968 0 0 1-2.647.465l-2.597-1.694a1.972 1.972 0 0 1-.738-.882l-3.001-7.105c-.617-1.463-2.624-1.629-3.473-.288l-.675 1.064a1.967 1.967 0 0 1-2.673.634L323.59 50.571l9.46-14.23Z" fill="#2D5DA8"/><path fill-rule="evenodd" clip-rule="evenodd" d="m333.05 32.407 39.333 23.83 3.524 18.514c.321 1.687-1.521 2.946-2.976 2.036l-7.981-4.995a1.97 1.97 0 0 1-.862-1.182l-1.39-5.454c-.408-1.6-2.486-2.016-3.478-.697l-.971 1.29a1.968 1.968 0 0 1-2.647.465l-2.597-1.694a1.973 1.973 0 0 1-.738-.882l-3.001-7.106c-.617-1.462-2.624-1.629-3.473-.288l-.675 1.065a1.967 1.967 0 0 1-2.673.634L323.59 46.637l9.46-14.23Z" fill="url(#r)"/><path fill-rule="evenodd" clip-rule="evenodd" d="M308.525 53.654c14.753 0 26.713-11.96 26.713-26.713S323.278.228 308.525.228c-14.754 0-26.713 11.96-26.713 26.713 0 14.754 11.959 26.713 26.713 26.713Zm-7.775-28.067a5.992 5.992 0 1 0 .001-11.985 5.992 5.992 0 0 0-.001 11.985Z" fill="url(#s)"/><path fill-rule="evenodd" clip-rule="evenodd" d="M333.647 169.263c-3.968 4.456-2.62 10.427 2.497 14.857 5.117 4.431 6.367 3.222 6.367 3.222s-1.366 3.3 2.436 8.991c3.802 5.69 2.37 31.893 1.11 41.785-1.26 9.893-3.437 22.46 3.636 26.516 7.073 4.067 30.989 2.531 35.532-4.394 4.531-6.93-4.485-69.254-6.794-76.12-2.299-6.865-6.163-9.595-6.163-9.595s-4.106-6.599-10.129-8.391c-6.012-1.791-11.505-2.378-16.213-.972-4.697 1.406-8.544-.101-12.279 4.101Z" fill="#2D5DA8"/><mask id="t" style="mask-type:alpha" maskUnits="userSpaceOnUse" x="331" y="164" width="56" height="103"><path fill-rule="evenodd" clip-rule="evenodd" d="M333.647 169.263c-3.968 4.456-2.62 10.427 2.497 14.857 5.117 4.431 6.367 3.222 6.367 3.222s-1.366 3.3 2.436 8.991c3.802 5.69 2.37 31.893 1.11 41.785-1.26 9.893-3.437 22.46 3.636 26.516 7.073 4.067 30.989 2.531 35.532-4.394 4.531-6.93-4.485-69.254-6.794-76.12-2.299-6.865-6.163-9.595-6.163-9.595s-4.106-6.599-10.129-8.391c-6.012-1.791-11.505-2.378-16.213-.972-4.697 1.406-8.544-.101-12.279 4.101Z" fill="#fff"/></mask><g mask="url(#t)"><path d="M364.724 164.379s8.632 9.49 9.77 17.443c1.137 7.953 8.71 64.187 7.194 72.762-1.516 8.576-15.023 16.923-15.023 16.923l33.097-16.923-18.074-88.461-16.964-1.744Z" fill="#272B54"/></g><path fill-rule="evenodd" clip-rule="evenodd" d="M151.578 552.695c-1.006-10.975 5.769-15.727 12.09-25.099 6.322-9.372 3.603-19.373 2.233-27.872-1.371-8.499 5.437-11.284 8.764-16.556 3.326-5.283-.056-20.479 3.647-28.315 3.713-7.846 17.815-20.523 17.815-20.523s-3.481 10.765.663 19.772c4.156 9.018 3.062 23.595-1.912 32.139-4.962 8.543-4.011 13.571-.298 21.993 3.702 8.421-1.79 13.792-7.416 21.86-5.625 8.068-1.005 13.693 1.36 24.259 2.365 10.565-.365 8.454-5.007 18.931-4.642 10.477.387 11.538.652 15.849.254 4.31-.652 14.433-.652 14.433h-23.484s-17.352-13.505-11.417-25.109c5.934-11.605 3.978-14.788 2.962-25.762Z" fill="url(#u)"/><mask id="v" style="mask-type:alpha" maskUnits="userSpaceOnUse" x="147" y="434" width="53" height="170"><path fill-rule="evenodd" clip-rule="evenodd" d="M151.578 552.695c-1.006-10.975 5.769-15.727 12.09-25.099 6.322-9.372 3.603-19.373 2.233-27.872-1.371-8.499 5.437-11.284 8.764-16.556 3.326-5.283-.056-20.479 3.647-28.315 3.713-7.846 17.815-20.523 17.815-20.523s-3.481 10.765.663 19.772c4.156 9.018 3.062 23.595-1.912 32.139-4.962 8.543-4.011 13.571-.298 21.993 3.702 8.421-1.79 13.792-7.416 21.86-5.625 8.068-1.005 13.693 1.36 24.259 2.365 10.565-.365 8.454-5.007 18.931-4.642 10.477.387 11.538.652 15.849.254 4.31-.652 14.433-.652 14.433h-23.484s-17.352-13.505-11.417-25.109c5.934-11.605 3.978-14.788 2.962-25.762Z" fill="#fff"/></mask><g mask="url(#v)" fill-rule="evenodd" clip-rule="evenodd"><path opacity=".871" d="m189.055 446.983 1.879.581c-.727 2.351-1.201 4.612-1.565 7.425l-.254 2.224-.226 2.49-.47 6.167-.252 2.703-.18 1.554-.2 1.424-.229 1.354-.267 1.341-.299 1.326-.324 1.249c-.058.207-.118.415-.18.625l-.41 1.294-.494 1.411-.599 1.596-1.923 4.853-.9 2.352-.474 1.332c-.072.211-.14.416-.206.617l-.36 1.17c-.056.19-.108.379-.159.567l-.287 1.135a36.15 36.15 0 0 0-.131.581l-.256 1.279-.204 1.269-.158 1.308a42.38 42.38 0 0 0-.062.684l-.098 1.46-.063 1.623-.044 2.85-.001 3.891c-.001.818-.007 1.565-.018 2.259l-.05 1.937a46.168 46.168 0 0 1-.321 4.08l-.105.784c-.318 2.246-.777 4.207-1.569 6.63l-.579 1.692-.691 1.878-.814 2.114-1.308 3.319-.927 2.435-.5 1.392-.423 1.263-.361 1.185c-.056.194-.111.387-.163.579l-.299 1.161-.14.595a23.04 23.04 0 0 0-.584 4.224l-.04 1.394c-.003.246-.003.5-.002.762l.029 1.684.124 3.133.081 1.842.05 1.558.019 1.342-.015 1.199a33.8 33.8 0 0 1-.02.567l-.069 1.115a41.93 41.93 0 0 1-.049.565c-.15 1.655-.486 3.01-1.242 5.079l-.568 1.497-.99 2.511-.326.88c-3.679 10.312-4.723 19.374-1.848 26.007l.398.851-1.759.882c-3.666-7.312-2.649-17.177 1.356-28.401l.339-.915 1.32-3.367c.861-2.275 1.216-3.603 1.361-5.205l.083-1.067.048-1.076c.005-.184.009-.372.011-.564l-.003-1.219-.063-2.189-.176-4.066-.051-1.872c-.049-2.91.092-4.847.529-6.953l.286-1.258.31-1.207.347-1.205.402-1.254.47-1.356.556-1.507 1.027-2.657 1.354-3.446.733-1.94c.225-.609.43-1.183.617-1.73l.514-1.567a34.297 34.297 0 0 0 1.161-4.889l.199-1.387.149-1.366c.022-.23.041-.463.059-.699l.089-1.478.054-1.642.027-1.879.005-4.972.024-2.01.051-1.771.083-1.583c.017-.251.036-.496.056-.737l.143-1.398.189-1.339c.036-.221.074-.441.114-.663l.27-1.345.138-.611.299-1.187.344-1.191.407-1.253.488-1.373.585-1.55.703-1.788 1.21-3.036.922-2.422.48-1.369a51 51 0 0 0 .207-.635l.363-1.215a32.9 32.9 0 0 0 .161-.596l.292-1.209.279-1.31.238-1.298c.037-.218.072-.439.107-.662l.194-1.387c.03-.241.06-.487.089-.74l.169-1.606.245-2.834.387-5.136.232-2.553c.367-3.613.836-6.324 1.62-9.071l.273-.919Z" fill="#fff"/><path d="m157.548 533.983 15.292 32.812c7.612 16.332 2.253 35.773-12.651 45.899l-12.81-78.711h10.169Z" fill="#000" fill-opacity=".093"/></g><path fill-rule="evenodd" clip-rule="evenodd" d="M147.721 603.612s-14.002-8.598-12.654-17.13c1.36-8.532-4.056-16.987-8.642-25.95-4.587-8.963 5.89-14.356 3.072-23.739-2.818-9.383-18.003-12.699-13.572-23.905 4.443-11.196 9.638-12.909 4.709-21.308-4.93-8.388-16.423-11.914-13.837-24.833 2.586-12.909 9.46-14.556 2.531-23.088-6.93-8.543-11.947-17.716-8.543-26.723 3.403-9.018 6.354-19.583 6.354-19.583s18.203 19.948 18.678 29.872c.475 9.925-2.962 15.849 4.818 23.132 7.781 7.272 13.008 13.395 11.384 25.342-1.625 11.958-1.592 17.218 4.63 25.01 6.223 7.802 12.312 16.467 9.129 26.314-3.172 9.858-1.216 14.555 4.686 24.248 5.913 9.703 11.273 23.098 10.09 31.155-1.171 8.067-3.841 21.142-3.841 21.142l-18.992.044Z" fill="url(#w)"/><mask id="x" style="mask-type:alpha" maskUnits="userSpaceOnUse" x="99" y="397" width="72" height="207"><path fill-rule="evenodd" clip-rule="evenodd" d="M147.721 603.612s-14.002-8.598-12.654-17.13c1.36-8.532-4.056-16.987-8.642-25.95-4.587-8.963 5.89-14.356 3.072-23.739-2.818-9.383-18.003-12.699-13.572-23.905 4.443-11.196 9.638-12.909 4.709-21.308-4.93-8.388-16.423-11.914-13.837-24.833 2.586-12.909 9.46-14.556 2.531-23.088-6.93-8.543-11.947-17.716-8.543-26.723 3.403-9.018 6.354-19.583 6.354-19.583s18.203 19.948 18.678 29.872c.475 9.925-2.962 15.849 4.818 23.132 7.781 7.272 13.008 13.395 11.384 25.342-1.625 11.958-1.592 17.218 4.63 25.01 6.223 7.802 12.312 16.467 9.129 26.314-3.172 9.858-1.216 14.555 4.686 24.248 5.913 9.703 11.273 23.098 10.09 31.155-1.171 8.067-3.841 21.142-3.841 21.142l-18.992.044Z" fill="#fff"/></mask><g mask="url(#x)" fill-rule="evenodd" clip-rule="evenodd"><path opacity=".871" d="m111.617 421.92 45.931 183.88-1.906.486-45.931-183.879 1.906-.487Z" fill="#fff"/><path d="M132.281 603.567s-19.175-6.531-16.356-19.274c2.807-12.754 9.913-18.39.994-27.453-8.919-9.062-7.15-20.434-5.095-29.475 2.056-9.04-8.653-7.913-11.56-18.213-2.895-10.3 3.769-29.199 3.769-29.199s1.403 11.417 7.902 17.528c6.509 6.123 12.776 5.957 13.428 13.439.641 7.482 1.171 10.643 6.918 16.169 5.747 5.537 9.317 14.699 7.604 22.236-1.713 7.548 4.675 9.847 8.897 15.307 9.073 11.737 6.642 38.537 6.642 38.537l-23.143.398Z" fill="#000" fill-opacity=".093"/></g><path fill-rule="evenodd" clip-rule="evenodd" d="M123.319 603.444s-19.175-6.532-16.356-19.275c2.807-12.753 9.913-18.39.994-27.452-8.918-9.063-7.15-20.435-5.095-29.475 2.056-9.041-8.653-7.913-11.56-18.214-2.895-10.3 3.769-29.198 3.769-29.198s1.404 11.416 7.902 17.528c6.509 6.122 12.776 5.957 13.428 13.439.641 7.482 1.171 10.643 6.918 16.168 5.747 5.537 9.317 14.699 7.604 22.237-1.713 7.548 4.675 9.847 8.897 15.306 9.073 11.737 6.642 38.538 6.642 38.538l-23.143.398Z" fill="url(#y)"/><defs><linearGradient id="a" x1="-84.905" y1="222.622" x2="122.662" y2="520.418" gradientUnits="userSpaceOnUse"><stop stop-color="#fff"/><stop offset="1" stop-color="#B4CBFF"/></linearGradient><linearGradient id="b" x1="267.771" y1="480.827" x2="642.695" y2="319.361" gradientUnits="userSpaceOnUse"><stop stop-color="#F9FBFF"/><stop offset="1" stop-color="#B4CBFF"/></linearGradient><linearGradient id="d" x1="285.519" y1="451.165" x2="61.309" y2="250.93" gradientUnits="userSpaceOnUse"><stop stop-color="#F3F6FF"/><stop offset="1" stop-color="#B4CBFF"/></linearGradient><linearGradient id="f" x1="223.304" y1="106.088" x2="243.022" y2="129.46" gradientUnits="userSpaceOnUse"><stop stop-color="#FFC238"/><stop offset="1" stop-color="#FFAC75"/></linearGradient><linearGradient id="g" x1="226.644" y1="247.967" x2="226.644" y2="273.425" gradientUnits="userSpaceOnUse"><stop stop-color="#FD778F"/><stop offset="1" stop-color="#F09D88"/></linearGradient><linearGradient id="i" x1="215.968" y1="702.279" x2="432.146" y2="708.319" gradientUnits="userSpaceOnUse"><stop stop-color="#F3F6FF"/><stop offset="1" stop-color="#B4CBFF"/></linearGradient><linearGradient id="k" x1="377.529" y1="261.454" x2="401.465" y2="264.191" gradientUnits="userSpaceOnUse"><stop stop-color="#BCF4FF"/><stop offset="1" stop-color="#26BFFF"/></linearGradient><linearGradient id="m" x1="230.799" y1="268.33" x2="331.415" y2="340.185" gradientUnits="userSpaceOnUse"><stop stop-color="#BCF4FF"/><stop offset="1" stop-color="#26BFFF"/></linearGradient><linearGradient id="o" x1="232.634" y1="446.921" x2="243.799" y2="460.154" gradientUnits="userSpaceOnUse"><stop stop-color="#FFC238"/><stop offset="1" stop-color="#FFAC75"/></linearGradient><linearGradient id="p" x1="393.421" y1="102.058" x2="393.421" y2="130.918" gradientUnits="userSpaceOnUse"><stop stop-color="#FD778F"/><stop offset="1" stop-color="#F09D88"/></linearGradient><linearGradient id="q" x1="-7.954" y1="289.64" x2="45.816" y2="346.152" gradientUnits="userSpaceOnUse"><stop stop-color="#DA348C"/><stop offset="1" stop-color="#6E23B4"/></linearGradient><linearGradient id="r" x1="413.42" y1="11.564" x2="359.31" y2="59.485" gradientUnits="userSpaceOnUse"><stop stop-color="#BCF4FF"/><stop offset="1" stop-color="#26BFFF"/></linearGradient><linearGradient id="s" x1="265.23" y1="26.945" x2="321.238" y2="54.945" gradientUnits="userSpaceOnUse"><stop stop-color="#BCF4FF"/><stop offset="1" stop-color="#26BFFF"/></linearGradient><linearGradient id="u" x1="130.168" y1="501.446" x2="191.064" y2="514.02" gradientUnits="userSpaceOnUse"><stop stop-color="#BCF4FF"/><stop offset="1" stop-color="#26BFFF"/></linearGradient><linearGradient id="w" x1="76.169" y1="479.151" x2="158.529" y2="498.22" gradientUnits="userSpaceOnUse"><stop stop-color="#BCF4FF"/><stop offset="1" stop-color="#26BFFF"/></linearGradient><linearGradient id="y" x1="71.967" y1="528.852" x2="134.745" y2="548.037" gradientUnits="userSpaceOnUse"><stop stop-color="#BCF4FF"/><stop offset="1" stop-color="#26BFFF"/></linearGradient></defs></svg>